<svg width="197" height="37" viewBox="0 0 197 37" fill="none" xmlns="http://www.w3.org/2000/svg">
<path d="M27.7799 15.13C30.4999 15.13 32.4999 15.68 33.7799 16.78C35.0799 17.88 35.7299 19.32 35.7299 21.1C35.7299 21.7 35.6499 22.37 35.4899 23.11C35.1099 24.75 34.3999 26.19 33.3599 27.43C32.3199 28.65 31.0399 29.6 29.5199 30.28C28.0199 30.94 26.3899 31.27 24.6299 31.27C21.8499 31.27 19.7899 30.72 18.4499 29.62C17.1299 28.5 16.4699 27.02 16.4699 25.18C16.4699 24.56 16.5499 23.87 16.7099 23.11C17.0899 21.55 17.8099 20.17 18.8699 18.97C19.9499 17.75 21.2599 16.81 22.7999 16.15C24.3599 15.47 26.0199 15.13 27.7799 15.13ZM27.6899 17.8C27.2699 17.8 26.8199 18.18 26.3399 18.94C25.8799 19.68 25.3299 21.09 24.6899 23.17C24.0499 25.25 23.7299 26.71 23.7299 27.55C23.7299 27.99 23.7999 28.29 23.9399 28.45C24.0799 28.59 24.2699 28.66 24.5099 28.66C24.9299 28.7 25.3599 28.34 25.7999 27.58C26.2599 26.82 26.8299 25.34 27.5099 23.14C28.1299 21.2 28.4399 19.79 28.4399 18.91C28.4399 18.49 28.3699 18.2 28.2299 18.04C28.1099 17.88 27.9299 17.8 27.6899 17.8ZM53.6615 26.86C53.6215 26.94 53.6015 27.06 53.6015 27.22C53.6015 27.36 53.6315 27.47 53.6915 27.55C53.7715 27.63 53.8715 27.67 53.9915 27.67C54.2315 27.67 54.4315 27.57 54.5915 27.37C54.7715 27.15 54.8915 27.04 54.9515 27.04C55.0515 27.04 55.1315 27.11 55.1915 27.25C55.2515 27.37 55.2815 27.52 55.2815 27.7C55.3015 28.28 55.1115 28.85 54.7115 29.41C54.3115 29.95 53.7215 30.4 52.9415 30.76C52.1815 31.1 51.2615 31.27 50.1815 31.27C48.8615 31.27 47.8115 30.97 47.0315 30.37C46.2515 29.75 45.8515 28.93 45.8315 27.91C45.8315 27.17 46.0115 26.34 46.3715 25.42L48.0215 21.1C48.1215 20.84 48.1715 20.63 48.1715 20.47C48.1715 20.21 48.0815 20.01 47.9015 19.87C47.7415 19.71 47.5415 19.63 47.3015 19.63C46.9215 19.63 46.5315 19.81 46.1315 20.17C45.7515 20.51 45.4415 21.07 45.2015 21.85V21.79L43.3115 27.88C43.2515 28.12 43.2215 28.33 43.2215 28.51C43.2215 28.77 43.2715 28.98 43.3715 29.14C43.4715 29.28 43.6115 29.42 43.7915 29.56C43.9315 29.7 44.0315 29.82 44.0915 29.92C44.1515 30 44.1615 30.11 44.1215 30.25C44.0215 30.51 43.8215 30.7 43.5215 30.82C43.2215 30.94 42.7615 31 42.1415 31H35.3015C34.7815 31 34.4015 30.92 34.1615 30.76C33.9215 30.58 33.8415 30.35 33.9215 30.07C34.0015 29.83 34.2115 29.62 34.5515 29.44C34.8515 29.28 35.1015 29.09 35.3015 28.87C35.5015 28.65 35.6715 28.3 35.8115 27.82L40.3715 12.85C40.4315 12.67 40.4615 12.52 40.4615 12.4C40.4615 12.18 40.4015 12 40.2815 11.86C40.1815 11.72 40.0415 11.58 39.8615 11.44C39.6615 11.28 39.5115 11.14 39.4115 11.02C39.3315 10.9 39.3215 10.74 39.3815 10.54C39.5015 10.08 40.1315 9.68 41.2715 9.34C42.4115 9 43.6015 8.83 44.8415 8.83C46.0015 8.83 46.8515 9.05 47.3915 9.49C47.9515 9.93 48.2315 10.53 48.2315 11.29C48.2315 11.73 48.1615 12.16 48.0215 12.58L46.4015 17.86C47.1815 16.84 48.0015 16.13 48.8615 15.73C49.7415 15.33 50.6915 15.13 51.7115 15.13C52.9315 15.13 53.9115 15.5 54.6515 16.24C55.4115 16.98 55.7915 17.94 55.7915 19.12C55.7915 19.74 55.6915 20.35 55.4915 20.95L53.6615 26.86ZM85.1003 26.86C85.0603 26.94 85.0403 27.06 85.0403 27.22C85.0403 27.36 85.0703 27.47 85.1303 27.55C85.2103 27.63 85.3103 27.67 85.4303 27.67C85.6703 27.67 85.8703 27.57 86.0303 27.37C86.2103 27.15 86.3303 27.04 86.3903 27.04C86.4903 27.04 86.5703 27.11 86.6303 27.25C86.6903 27.37 86.7203 27.52 86.7203 27.7C86.7403 28.28 86.5503 28.85 86.1503 29.41C85.7503 29.95 85.1603 30.4 84.3803 30.76C83.6203 31.1 82.7003 31.27 81.6203 31.27C80.3003 31.27 79.2503 30.97 78.4703 30.37C77.6903 29.75 77.2903 28.93 77.2703 27.91C77.2703 27.17 77.4503 26.34 77.8103 25.42L79.4603 21.1C79.5603 20.84 79.6103 20.63 79.6103 20.47C79.6103 20.21 79.5203 20.01 79.3403 19.87C79.1803 19.71 78.9803 19.63 78.7403 19.63C78.4003 19.63 78.0503 19.78 77.6903 20.08C77.3303 20.38 77.0103 20.85 76.7303 21.49L75.0803 26.86C75.0403 26.94 75.0203 27.06 75.0203 27.22C75.0203 27.36 75.0503 27.47 75.1103 27.55C75.1903 27.63 75.2903 27.67 75.4103 27.67C75.6503 27.67 75.8503 27.57 76.0103 27.37C76.1903 27.15 76.3103 27.04 76.3703 27.04C76.4703 27.04 76.5503 27.11 76.6103 27.25C76.6703 27.37 76.7003 27.52 76.7003 27.7C76.7203 28.28 76.5303 28.85 76.1303 29.41C75.7303 29.95 75.1403 30.4 74.3603 30.76C73.6003 31.1 72.6803 31.27 71.6003 31.27C70.2803 31.27 69.2303 30.97 68.4503 30.37C67.6703 29.75 67.2703 28.93 67.2503 27.91C67.2503 27.17 67.4303 26.34 67.7903 25.42L69.4403 21.1C69.5403 20.84 69.5903 20.63 69.5903 20.47C69.5903 20.21 69.5003 20.01 69.3203 19.87C69.1603 19.71 68.9603 19.63 68.7203 19.63C68.3803 19.63 68.0303 19.78 67.6703 20.08C67.3103 20.36 67.0103 20.82 66.7703 21.46L64.7903 27.88C64.7103 28.1 64.6703 28.31 64.6703 28.51C64.6703 28.75 64.7203 28.95 64.8203 29.11C64.9203 29.25 65.0603 29.4 65.2403 29.56C65.3803 29.68 65.4803 29.79 65.5403 29.89C65.6003 29.99 65.6103 30.11 65.5703 30.25C65.4903 30.51 65.3003 30.7 65.0003 30.82C64.7003 30.94 64.2303 31 63.5903 31H56.7503C56.2303 31 55.8603 30.92 55.6403 30.76C55.4003 30.58 55.3103 30.35 55.3703 30.07C55.4503 29.83 55.6603 29.62 56.0003 29.44C56.3003 29.28 56.5503 29.09 56.7503 28.87C56.9503 28.65 57.1203 28.3 57.2603 27.82L59.9303 19.15C59.9703 19.05 59.9903 18.91 59.9903 18.73C59.9903 18.51 59.9403 18.34 59.8403 18.22C59.7603 18.1 59.6203 17.95 59.4203 17.77C59.2203 17.61 59.0803 17.47 59.0003 17.35C58.9203 17.23 58.9103 17.07 58.9703 16.87C59.0903 16.41 59.7203 16.01 60.8603 15.67C62.0003 15.31 63.1903 15.13 64.4303 15.13C65.4103 15.13 66.1803 15.4 66.7403 15.94C67.3203 16.48 67.6003 17.22 67.5803 18.16C68.4003 17.02 69.2603 16.23 70.1603 15.79C71.0803 15.35 72.0703 15.13 73.1303 15.13C74.2903 15.13 75.2303 15.47 75.9503 16.15C76.6903 16.81 77.1003 17.68 77.1803 18.76C78.0403 17.4 78.9603 16.46 79.9403 15.94C80.9203 15.4 81.9903 15.13 83.1503 15.13C84.3703 15.13 85.3503 15.5 86.0903 16.24C86.8503 16.98 87.2303 17.94 87.2303 19.12C87.2303 19.74 87.1303 20.35 86.9303 20.95L85.1003 26.86ZM103.613 15.13C104.493 15.13 105.193 15.49 105.713 16.21C106.253 16.91 106.523 17.87 106.523 19.09C106.523 20.15 106.333 21.29 105.953 22.51C105.213 24.97 104.023 27.29 102.383 29.47C100.763 31.65 98.8929 33.4 96.7729 34.72C94.6729 36.04 92.5729 36.7 90.4729 36.7C89.4329 36.7 88.5329 36.52 87.7729 36.16C87.0329 35.8 86.4729 35.32 86.0929 34.72C85.6929 34.12 85.4929 33.48 85.4929 32.8C85.4929 32.5 85.5429 32.17 85.6429 31.81C85.8229 31.25 86.1229 30.82 86.5429 30.52C86.9629 30.22 87.4629 30.07 88.0429 30.07C88.9629 30.07 89.7129 30.38 90.2929 31C90.8929 31.64 91.2729 32.51 91.4329 33.61C92.7129 33.55 93.8929 33 94.9729 31.96C93.9529 31.78 93.1929 31.44 92.6929 30.94C92.2129 30.42 91.8829 29.62 91.7029 28.54L90.5029 21.19C90.4429 20.81 90.3529 20.55 90.2329 20.41C90.1329 20.25 89.9929 20.17 89.8129 20.17C89.6729 20.17 89.5029 20.24 89.3029 20.38C89.1229 20.52 88.9929 20.59 88.9129 20.59C88.7529 20.59 88.6729 20.42 88.6729 20.08C88.6729 19.8 88.7229 19.5 88.8229 19.18C89.1829 18.04 89.8529 17.08 90.8329 16.3C91.8129 15.5 92.9529 15.1 94.2529 15.1C95.5329 15.1 96.4729 15.48 97.0729 16.24C97.6929 17 98.0929 18.17 98.2729 19.75L99.1729 26.35C99.2329 26.85 99.4129 27.1 99.7129 27.1C100.073 27.1 100.493 26.78 100.973 26.14C101.453 25.48 101.923 24.55 102.383 23.35C101.783 22.81 101.323 22.19 101.003 21.49C100.683 20.79 100.523 20.04 100.523 19.24C100.523 18.62 100.603 18.06 100.763 17.56C101.003 16.76 101.373 16.16 101.873 15.76C102.393 15.34 102.973 15.13 103.613 15.13ZM118.556 8.83C120.696 8.83 122.296 9.16 123.356 9.82C124.436 10.46 124.976 11.25 124.976 12.19C124.976 12.95 124.656 13.54 124.016 13.96C123.396 14.36 122.576 14.56 121.556 14.56C120.616 14.56 119.886 14.33 119.366 13.87C118.846 13.41 118.586 12.84 118.586 12.16C118.586 11.74 118.716 11.3 118.976 10.84C118.376 10.84 117.876 10.99 117.476 11.29C117.076 11.57 116.766 12.06 116.546 12.76C116.426 13.2 116.366 13.61 116.366 13.99C116.366 14.47 116.446 14.85 116.606 15.13C116.786 15.39 117.036 15.52 117.356 15.52H119.126C120.166 15.52 120.686 15.84 120.686 16.48C120.686 16.56 120.666 16.68 120.626 16.84C120.506 17.28 120.256 17.61 119.876 17.83C119.516 18.05 118.966 18.16 118.226 18.16H117.326L114.356 27.88C114.296 28.12 114.266 28.33 114.266 28.51C114.266 28.77 114.316 28.98 114.416 29.14C114.516 29.28 114.656 29.42 114.836 29.56C114.976 29.7 115.076 29.82 115.136 29.92C115.196 30 115.206 30.11 115.166 30.25C115.066 30.51 114.866 30.7 114.566 30.82C114.266 30.94 113.806 31 113.186 31H106.346C105.826 31 105.446 30.92 105.206 30.76C104.966 30.58 104.886 30.35 104.966 30.07C105.046 29.83 105.256 29.62 105.596 29.44C105.896 29.28 106.146 29.09 106.346 28.87C106.546 28.65 106.716 28.3 106.856 27.82L109.196 20.14C109.296 19.84 109.346 19.53 109.346 19.21C109.346 18.81 109.256 18.5 109.076 18.28C108.916 18.04 108.666 17.78 108.326 17.5C108.106 17.32 107.936 17.17 107.816 17.05C107.716 16.91 107.666 16.75 107.666 16.57C107.646 16.19 107.776 15.92 108.056 15.76C108.356 15.6 108.916 15.52 109.736 15.52H110.486C110.346 15.02 110.276 14.52 110.276 14.02C110.276 13.52 110.366 13 110.546 12.46C110.926 11.44 111.736 10.58 112.976 9.88C114.236 9.18 116.096 8.83 118.556 8.83ZM130.407 15.13C133.127 15.13 135.127 15.68 136.407 16.78C137.707 17.88 138.357 19.32 138.357 21.1C138.357 21.7 138.277 22.37 138.117 23.11C137.737 24.75 137.027 26.19 135.987 27.43C134.947 28.65 133.667 29.6 132.147 30.28C130.647 30.94 129.017 31.27 127.257 31.27C124.477 31.27 122.417 30.72 121.077 29.62C119.757 28.5 119.097 27.02 119.097 25.18C119.097 24.56 119.177 23.87 119.337 23.11C119.717 21.55 120.437 20.17 121.497 18.97C122.577 17.75 123.887 16.81 125.427 16.15C126.987 15.47 128.647 15.13 130.407 15.13ZM130.317 17.8C129.897 17.8 129.447 18.18 128.967 18.94C128.507 19.68 127.957 21.09 127.317 23.17C126.677 25.25 126.357 26.71 126.357 27.55C126.357 27.99 126.427 28.29 126.567 28.45C126.707 28.59 126.897 28.66 127.137 28.66C127.557 28.7 127.987 28.34 128.427 27.58C128.887 26.82 129.457 25.34 130.137 23.14C130.757 21.2 131.067 19.79 131.067 18.91C131.067 18.49 130.997 18.2 130.857 18.04C130.737 17.88 130.557 17.8 130.317 17.8ZM150.094 15.13C152.814 15.13 154.814 15.68 156.094 16.78C157.394 17.88 158.044 19.32 158.044 21.1C158.044 21.7 157.964 22.37 157.804 23.11C157.424 24.75 156.714 26.19 155.674 27.43C154.634 28.65 153.354 29.6 151.834 30.28C150.334 30.94 148.704 31.27 146.944 31.27C144.164 31.27 142.104 30.72 140.764 29.62C139.444 28.5 138.784 27.02 138.784 25.18C138.784 24.56 138.864 23.87 139.024 23.11C139.404 21.55 140.124 20.17 141.184 18.97C142.264 17.75 143.574 16.81 145.114 16.15C146.674 15.47 148.334 15.13 150.094 15.13ZM150.004 17.8C149.584 17.8 149.134 18.18 148.654 18.94C148.194 19.68 147.644 21.09 147.004 23.17C146.364 25.25 146.044 26.71 146.044 27.55C146.044 27.99 146.114 28.29 146.254 28.45C146.394 28.59 146.584 28.66 146.824 28.66C147.244 28.7 147.674 28.34 148.114 27.58C148.574 26.82 149.144 25.34 149.824 23.14C150.444 21.2 150.754 19.79 150.754 18.91C150.754 18.49 150.684 18.2 150.544 18.04C150.424 17.88 150.244 17.8 150.004 17.8ZM174.942 26.68C174.902 26.84 174.882 26.95 174.882 27.01C174.882 27.15 174.922 27.26 175.002 27.34C175.082 27.42 175.182 27.46 175.302 27.46C175.542 27.46 175.742 27.36 175.902 27.16C176.082 26.94 176.202 26.83 176.262 26.83C176.362 26.83 176.442 26.9 176.502 27.04C176.562 27.18 176.592 27.34 176.592 27.52C176.612 28.06 176.402 28.61 175.962 29.17C175.542 29.73 174.972 30.19 174.252 30.55C173.532 30.91 172.752 31.09 171.912 31.09C170.912 31.09 170.042 30.9 169.302 30.52C168.562 30.14 168.052 29.64 167.772 29.02C167.232 29.72 166.612 30.24 165.912 30.58C165.212 30.92 164.472 31.09 163.692 31.09C162.772 31.09 161.912 30.86 161.112 30.4C160.332 29.94 159.702 29.29 159.222 28.45C158.762 27.59 158.532 26.62 158.532 25.54C158.532 23.72 158.872 22.01 159.552 20.41C160.252 18.79 161.222 17.49 162.462 16.51C163.702 15.51 165.112 15.01 166.692 15.01C167.552 15.01 168.282 15.11 168.882 15.31C169.502 15.51 170.062 15.81 170.562 16.21L171.582 12.85C171.642 12.67 171.672 12.52 171.672 12.4C171.672 12.18 171.612 12 171.492 11.86C171.392 11.72 171.252 11.58 171.072 11.44C170.872 11.28 170.722 11.14 170.622 11.02C170.542 10.9 170.532 10.74 170.592 10.54C170.712 10.08 171.342 9.68 172.482 9.34C173.622 9 174.812 8.83 176.052 8.83C177.212 8.83 178.062 9.05 178.602 9.49C179.162 9.93 179.442 10.53 179.442 11.29C179.442 11.73 179.372 12.16 179.232 12.58L174.942 26.68ZM169.932 18.25C169.612 17.97 169.262 17.83 168.882 17.83C168.302 17.83 167.732 18.26 167.172 19.12C166.612 19.98 166.162 21.02 165.822 22.24C165.482 23.46 165.322 24.56 165.342 25.54C165.342 26.64 165.702 27.19 166.422 27.19C166.682 27.19 166.902 27.09 167.082 26.89C167.262 26.67 167.432 26.32 167.592 25.84L169.932 18.25Z" fill="#101010"/>
</svg>
